PathFileType	3	(X/Y/Z)	D:\minhoCalibration\240510\subject2_KPNP\preferred\preferred07.trc
DataRate	CameraRate	NumFrames	NumMarkers	Units	OrigDataRate	OrigDataStartFrame	OrigNumFrames
200.0	200.0	18	10	mm	200.0	345	181	
Frame#	Time	Left_Ankle_Outer1			Left_Ankle_Inner1			Left_Knee_Outer1			Left_Knee_Inner1			Left_Wrist1			Right_Wrist1			Right_Knee_Inner1			Right_Knee_Outer1			Right_Ankle_Inner1			Right_Ankle_Outer1			
		X1	Y1	Z1	X2	Y2	Z2	X3	Y3	Z3	X4	Y4	Z4	X5	Y5	Z5	X6	Y6	Z6	X7	Y7	Z7	X8	Y8	Z8	X9	Y9	Z9	X10	Y10	Z10	
345	1.715	-529.92786	110.08463	-772.93237	-534.24829	125.31596	-717.2323	-314.0592	509.02509	-832.21204	-315.91724	494.91904	-736.26038	-417.70718	945.06854	-910.06775	-479.78714	1141.5427	-622.78479	-432.12656	899.9621	-197.65569	-446.83554	999.01758	-205.82727	-827.61688	844.74927	-345.79279	-846.83301	941.34814	-323.92899
346	1.72	-530.10333	110.16319	-773.146	-534.70648	125.15623	-717.4671	-315.84265	510.39423	-833.19037	-317.89841	496.42334	-736.98376	-426.08041	942.91052	-910.26794	-474.7124	1143.5173	-622.85315	-411.84143	907.87042	-198.49806	-423.1543	1005.9816	-208.40913	-823.09589	861.57269	-302.47144	-837.00024	958.55725	-282.63464
347	1.725	-530.44574	109.61022	-772.80841	-534.93018	125.04043	-717.62927	-318.43127	511.57028	-833.284	-320.53775	497.65506	-737.22052	-434.35205	940.745	-909.07416	-469.93423	1145.1855	-623.18414	-393.24136	914.93463	-200.27539	-401.48312	1011.9525	-212.32939	-815.29236	879.52704	-257.40952	-823.82819	976.63684	-240.09302
348	1.73	-530.9621	109.20482	-772.89594	-534.90704	125.73922	-715.62659	-320.82538	512.99207	-833.61371	-323.80368	498.59232	-736.98016	-441.83899	938.81799	-908.41345	-464.82477	1146.991	-623.51257	-376.41196	920.92413	-203.02612	-381.95221	1016.7065	-217.21768	-803.60938	896.72742	-211.30942	-807.69788	993.58331	-196.67142
349	1.735	-531.67822	108.51248	-772.71954	-535.27594	124.41177	-717.7605	-323.77814	514.34454	-833.66742	-327.32196	499.4762	-736.52844	-448.83792	937.16406	-906.73077	-460.90982	1148.4569	-625.13214	-361.60312	926.13306	-206.50861	-364.87457	1020.639	-222.65846	-788.00604	914.18878	-164.50154	-788.27362	1010.5173	-152.37259
350	1.74	-532.50531	108.107	-772.68927	-535.75592	123.34921	-717.64777	-327.10107	515.63409	-833.25977	-331.27069	499.90115	-735.70135	-454.98691	935.63971	-905.7063	-456.60443	1150.4902	-626.83392	-349.16257	930.66211	-210.60912	-350.5253	1023.8293	-228.2025	-767.83154	930.59961	-116.91079	-764.65735	1027.4008	-108.16425
351	1.745	-533.46094	107.41779	-771.73297	-537.76044	121.56371	-717.58789	-331.39212	516.04749	-832.40906	-335.41318	500.21906	-734.60376	-460.57913	934.32581	-904.10199	-453.58521	1152.4771	-627.69189	-339.16522	934.46362	-214.56509	-338.88611	1026.425	-233.5376	-743.15717	946.67145	-69.371132	-737.08643	1043.7682	-63.884624
352	1.75	-534.63934	106.80275	-770.18396	-537.80554	121.70246	-714.83691	-335.24814	517.05042	-831.62189	-339.53204	500.42892	-733.4621	-465.65097	933.20966	-902.49176	-450.11343	1154.1444	-629.04486	-331.68457	937.88281	-218.49815	-329.96326	1028.443	-238.51747	-716.30664	963.77686	-25.113825	-705.29785	1059.6464	-21.046
353	1.755	-536.276	106.73816	-768.32996	-538.44183	121.9729	-711.11853	-338.95358	517.65619	-831.19769	-343.54465	500.68457	-732.2951	-470.31995	932.27399	-900.6059	-447.2168	1155.8448	-630.48993	-326.90991	941.08734	-222.17966	-323.56149	1030.0554	-242.94949	-682.22937	977.53088	19.356998	-668.81946	1074.9254	20.030212
354	1.76	-537.86865	106.08204	-764.83582	-539.22327	121.20296	-708.74823	-343.19583	517.58942	-830.39642	-347.41986	501.00751	-731.16345	-474.11298	932.00189	-899.20435	-445.01883	1157.5349	-631.92871	-324.78516	944.30762	-225.34544	-319.7659	1031.4539	-246.65707	-643.88849	990.00781	61.052719	-628.25409	1088.876	58.798962
355	1.765	-539.75098	105.9909	-761.12482	-540.18835	120.30476	-707.00861	-346.8269	518.2027	-829.86591	-350.99875	501.36859	-730.15399	-477.63379	931.57953	-898.51288	-443.05783	1158.9595	-633.03638	-325.38651	947.55042	-228.11217	-318.8877	1033.1063	-248.93901	-602.11011	1001.5048	98.661858	-583.47858	1101.7122	93.64016
356	1.77	-541.85687	106.29849	-757.3313	-541.01147	119.88425	-702.97137	-350.60434	518.33234	-829.34204	-354.35278	501.836	-729.34644	-480.47565	931.68518	-897.42816	-441.4751	1160.2889	-633.75043	-328.86789	950.95844	-230.4539	-320.55203	1035.4133	-250.65237	-556.133	1014.9413	132.10378	-534.64349	1112.3368	123.00858
357	1.775	-543.83813	106.24103	-752.6001	-542.51038	120.26682	-696.10382	-354.45773	518.61658	-828.82648	-357.43118	502.34747	-728.78723	-482.79959	931.99268	-896.33331	-440.37195	1161.6683	-633.97339	-334.3136	954.69263	-231.44923	-323.8501	1039.0048	-250.76628	-505.38678	1024.0859	158.50836	-483.71616	1120.021	146.07805
358	1.78	-545.6214	106.50879	-748.20618	-542.4516	121.33603	-690.90234	-358.72192	518.74341	-828.22211	-360.17578	502.95459	-728.40936	-484.80859	932.44287	-894.61993	-439.58911	1163.035	-633.78668	-341.45825	958.8714	-230.36867	-329.77573	1042.7587	-250.49814	-451.91574	1029.0844	177.31419	-431.9278	1124.3981	161.9301
359	1.785	-547.30316	106.69727	-743.89581	-542.5882	120.93795	-687.49194	-363.05823	518.83075	-827.91846	-362.74512	503.42792	-728.11475	-486.14673	932.94122	-893.09808	-439.07208	1164.4821	-632.94989	-347.08246	964.07385	-227.79413	-334.01514	1050.286	-250.38689	-395.93784	1028.3453	186.84605	-381.63727	1125.1744	171.05574
360	1.79	-548.77515	106.85899	-739.99121	-542.98297	121.64677	-682.98193	-367.51596	519.10211	-827.53613	-365.12723	503.99857	-727.90118	-487.2413	933.33875	-890.36646	-438.72516	1166.025	-631.47034	-350.28293	969.95215	-224.40782	-336.42502	1059.9656	-247.94101	-343.64999	1025.6165	185.85988	-338.69418	1121.7498	171.76086
361	1.795	-549.97784	106.87952	-736.71979	-543.27307	121.49273	-679.65643	-372.43158	519.28503	-827.02521	-367.37225	504.41928	-727.54071	-487.29523	934.82874	-888.66235	-438.61325	1167.5986	-629.26257	-348.08456	975.72272	-221.34277	-335.21094	1067.6384	-246.17093	-324.57379	1022.9847	180.12914	-315.19263	1119.6691	165.93535
362	1.8	-550.81903	106.46453	-733.73511	-543.41528	120.80892	-677.82849	-377.63342	519.41571	-825.95569	-369.12836	504.82877	-727.08862	-487.66147	935.81244	-885.79974	-438.75815	1168.9363	-626.8429	-334.26279	981.52637	-223.32846	-326.77927	1072.9091	-246.97617	-318.12302	1019.2634	174.40121	-308.8222	1118.8634	167.62868
